# Blender v2.90.1 OBJ File: ''
# www.blender.org
mtllib AltimeterNeedle.mtl
o Plane
v -0.327799 0.003863 0.015711
v 0.273952 0.002745 -0.436849
v 0.328458 0.002745 -0.396524
v -0.394759 0.003863 -0.075213
v 0.215975 0.002745 -0.515575
v -0.361279 0.002745 -0.029751
v 0.261049 0.002745 -0.488058
v 0.193639 0.002745 -0.579592
v 0.389514 0.002745 -0.582665
v -0.327799 0.016214 0.015711
v 0.273952 0.017332 -0.436849
v 0.328458 0.017332 -0.396524
v -0.394759 0.016214 -0.075213
v 0.215975 0.017332 -0.515575
v -0.361279 0.017332 -0.029751
v 0.261049 0.017332 -0.488058
v 0.193639 0.017332 -0.579592
v 0.389514 0.017332 -0.582665
v -0.438930 -0.067184 -0.174237
v -0.613582 -0.067184 -0.073401
v -0.613582 -0.067184 0.128269
v -0.438930 -0.067184 0.229105
v -0.264278 -0.067184 0.128269
v -0.264278 -0.067184 -0.073401
v -0.264278 -0.017041 0.128269
v -0.438930 -0.017041 0.229105
v -0.613582 -0.017041 0.128269
v -0.438930 -0.067184 0.027434
v -0.613582 -0.017041 -0.073401
v -0.438930 -0.017041 -0.174237
v -0.264278 -0.017041 -0.073401
v -0.324476 0.034217 0.093514
v -0.324476 -0.017041 0.093514
v -0.438930 -0.017041 0.159594
v -0.553384 -0.017041 0.093514
v -0.553384 -0.017041 -0.038646
v -0.438930 -0.017041 -0.104726
v -0.324476 -0.017041 -0.038646
v -0.438930 0.034217 0.159594
v -0.553384 0.034217 0.093514
v -0.553384 0.034217 -0.038646
v -0.438930 0.034217 -0.104726
v -0.324476 0.034217 -0.038646
v -0.438930 0.034217 0.027434
v -0.613582 -0.067184 -0.073401
v -0.438930 -0.067184 -0.174237
v -0.613582 -0.067184 0.128269
v -0.438930 -0.067184 0.229105
v -0.264278 -0.067184 0.128269
v -0.264278 -0.067184 -0.073401
v -0.438930 -0.017041 -0.174237
v -0.264278 -0.017041 -0.073401
v -0.264278 -0.017041 0.128269
v -0.438930 -0.017041 0.229105
v -0.613582 -0.017041 0.128269
v -0.613582 -0.017041 -0.073401
vt 0.576008 0.035937
vt 0.586032 0.036025
vt 0.593433 0.197359
vt 0.582703 0.198107
vt 0.604304 0.034891
vt 0.604386 0.199247
vt 0.592892 0.234149
vt 0.573771 0.205470
vt 0.614359 0.206759
vt 0.600863 0.035425
vt 0.601664 0.200401
vt 0.592805 0.196926
vt 0.590098 0.035598
vt 0.579342 0.035787
vt 0.586575 0.199862
vt 0.592772 0.228019
vt 0.610673 0.205509
vt 0.576013 0.205651
vt 0.614862 0.030709
vt 0.612051 0.194835
vt 0.592755 0.237814
vt 0.566255 0.212273
vt 0.573582 0.195012
vt 0.617120 0.206150
vt 0.566057 0.035071
vt 0.585821 0.032410
vt 0.000000 0.000000
vt 0.000000 0.000000
vt 0.000000 0.000000
vt 0.000000 0.000000
vt 0.000000 0.000000
vt 0.000000 0.000000
vt 0.000000 0.000000
vt 0.131054 0.974723
vt 0.102106 0.958317
vt 0.111992 0.952504
vt 0.130962 0.963255
vt 0.101840 0.925045
vt 0.130521 0.908178
vt 0.130613 0.919646
vt 0.111817 0.930700
vt 0.159469 0.924584
vt 0.149583 0.930397
vt 0.159735 0.957856
vt 0.149758 0.952201
vt 0.345567 0.920233
vt 0.345567 0.862913
vt 0.358328 0.862913
vt 0.358328 0.920233
vt 0.345573 0.920241
vt 0.345573 0.862906
vt 0.358323 0.862906
vt 0.358323 0.920241
vt 0.345573 0.920241
vt 0.345573 0.862906
vt 0.358323 0.862906
vt 0.358323 0.920241
vt 0.358323 0.862906
vt 0.358323 0.920241
vt 0.345573 0.920241
vt 0.345573 0.862906
vt 0.345573 0.920241
vt 0.345573 0.862906
vt 0.358323 0.862906
vt 0.358323 0.920241
vt 0.358323 0.862906
vt 0.358323 0.920241
vt 0.345573 0.920241
vt 0.345573 0.862906
vt 0.359206 0.863200
vt 0.359206 0.920781
vt 0.345595 0.920781
vt 0.345595 0.863200
vt 0.359206 0.863200
vt 0.359206 0.920781
vt 0.345595 0.920781
vt 0.345595 0.863200
vt 0.359206 0.863200
vt 0.359206 0.920781
vt 0.345595 0.920781
vt 0.345595 0.863200
vt 0.359206 0.863200
vt 0.359206 0.920781
vt 0.345595 0.920781
vt 0.345595 0.863200
vt 0.345595 0.920781
vt 0.345595 0.863200
vt 0.359206 0.863200
vt 0.359206 0.920781
vt 0.359206 0.863200
vt 0.359206 0.920781
vt 0.345595 0.920781
vt 0.345595 0.863200
vt 0.391213 0.958861
vt 0.374901 0.968279
vt 0.374901 0.949443
vt 0.358589 0.958861
vt 0.358589 0.940026
vt 0.374901 0.930608
vt 0.391213 0.940026
vt 0.468336 0.920655
vt 0.066386 0.737325
vt 0.066386 0.737325
vt 0.468336 0.920655
vt 0.072290 0.302981
vt 0.072290 0.302981
vt 0.466647 0.079344
vt 0.466647 0.079344
vt 0.868596 0.262674
vt 0.868596 0.262674
vt 0.862693 0.697019
vt 0.862693 0.697019
vt 0.477622 0.999903
vt 0.934885 0.733507
vt 0.934885 0.733507
vt 0.477622 0.999903
vt 0.934885 0.212808
vt 0.934885 0.212808
vt 0.457361 0.000097
vt 0.457361 0.000097
vt 0.000097 0.266493
vt 0.000097 0.266493
vt 0.000097 0.787191
vt 0.000097 0.787191
vn 0.0057 -0.9999 0.0088
vn -0.0068 -0.9999 -0.0080
vn 0.0000 -1.0000 -0.0000
vn 0.0057 0.9999 0.0088
vn -0.0068 0.9999 -0.0080
vn 0.0000 1.0000 0.0000
vn -0.5849 0.0000 -0.8111
vn 0.9502 0.0000 0.3117
vn -0.5948 0.0000 0.8039
vn -0.0157 0.0000 -0.9999
vn -0.8052 0.0000 0.5930
vn 0.6011 0.0000 0.7992
vn -0.9442 0.0000 0.3294
vn -1.0000 0.0000 0.0000
vn 0.5000 0.0000 -0.8660
vn 0.5000 0.0000 0.8660
vn -0.5000 0.0000 0.8660
vn -0.5000 0.0000 -0.8660
vn 1.0000 0.0000 0.0000
vn 0.0000 0.0000 1.0000
usemtl Default_OBJ.001
s off
f 1/1/1 6/2/1 7/3/1 2/4/1
f 4/5/2 5/6/2 7/3/2 6/2/2
f 9/7/3 3/8/3 2/4/3 7/3/3
f 9/7/3 7/3/3 5/6/3 8/9/3
f 10/10/4 11/11/4 16/12/4 15/13/4
f 13/14/5 15/13/5 16/12/5 14/15/5
f 18/16/6 16/12/6 11/11/6 12/17/6
f 18/16/6 17/18/6 14/15/6 16/12/6
f 5/6/7 4/5/7 13/19/7 14/20/7
f 3/8/8 9/7/8 18/21/8 12/22/8
f 2/4/9 3/8/9 12/22/9 11/23/9
f 9/7/10 8/9/10 17/24/10 18/21/10
f 6/2/11 1/1/11 10/25/11 15/26/11
f 4/5/11 6/2/11 15/26/11 13/19/11
f 1/1/12 2/4/12 11/23/12 10/25/12
f 8/9/13 5/6/13 14/20/13 17/24/13
f 50/27/6 28/28/6 49/29/6
f 48/30/6 28/28/6 47/31/6
f 45/32/6 28/28/6 46/33/6
f 46/33/6 28/28/6 50/27/6
f 49/29/6 28/28/6 48/30/6
f 47/31/6 28/28/6 45/32/6
f 52/34/3 53/35/3 33/36/3 38/37/3
f 54/38/3 55/39/3 35/40/3 34/41/3
f 55/39/3 56/42/3 36/43/3 35/40/3
f 51/44/3 52/34/3 38/37/3 37/45/3
f 53/35/3 54/38/3 34/41/3 33/36/3
f 56/42/3 51/44/3 37/45/3 36/43/3
f 24/46/14 23/47/14 25/48/14 31/49/14
f 22/50/15 21/51/15 27/52/15 26/53/15
f 20/54/16 19/55/16 30/56/16 29/57/16
f 19/58/17 24/59/17 31/60/17 30/61/17
f 23/62/18 22/63/18 26/64/18 25/65/18
f 21/66/19 20/67/19 29/68/19 27/69/19
f 38/70/14 33/71/14 32/72/14 43/73/14
f 34/74/15 35/75/15 40/76/15 39/77/15
f 36/78/16 37/79/16 42/80/16 41/81/16
f 37/82/17 38/83/17 43/84/17 42/85/17
f 33/86/18 34/87/18 39/88/18 32/89/18
f 35/90/19 36/91/19 41/92/19 40/93/19
f 43/94/3 32/95/3 44/96/3
f 39/97/3 40/98/3 44/96/3
f 41/99/3 42/100/3 44/96/3
f 42/100/3 43/94/3 44/96/3
f 32/95/3 39/97/3 44/96/3
f 40/98/3 41/99/3 44/96/3
f 19/101/20 20/102/20 45/103/20 46/104/20
f 20/102/20 21/105/20 47/106/20 45/103/20
f 21/105/20 22/107/20 48/108/20 47/106/20
f 22/107/20 23/109/20 49/110/20 48/108/20
f 23/109/20 24/111/20 50/112/20 49/110/20
f 24/111/20 19/101/20 46/104/20 50/112/20
f 30/113/20 31/114/20 52/115/20 51/116/20
f 31/114/20 25/117/20 53/118/20 52/115/20
f 25/117/20 26/119/20 54/120/20 53/118/20
f 26/119/20 27/121/20 55/122/20 54/120/20
f 27/121/20 29/123/20 56/124/20 55/122/20
f 29/123/20 30/113/20 51/116/20 56/124/20
