# Blender 4.1.1
# www.blender.org
mtllib Tb2.mtl
o Circle.005
v 0.000000 0.197441 -0.165778
v -0.143568 0.197441 -0.082889
v -0.143568 0.197441 0.082889
v 0.000000 0.197441 0.165778
v 0.143567 0.197441 0.082889
v 0.143567 0.197441 -0.082889
v 0.000000 0.193370 -0.268983
v -0.232947 0.193370 -0.134492
v -0.232947 0.193370 0.134492
v 0.000000 0.193370 0.268983
v 0.232946 0.193370 0.134492
v 0.232946 0.193370 -0.134492
v 0.143567 -0.026480 -0.082889
v 0.143567 -0.026480 0.082889
v 0.000000 -0.026480 0.165778
v -0.143568 -0.026480 0.082889
v -0.143568 -0.026480 -0.082889
v 0.000000 -0.026480 -0.165778
v 0.000000 -0.026480 -0.268983
v -0.232947 -0.026480 -0.134492
v -0.232947 -0.026480 0.134492
v 0.000000 -0.026480 0.268983
v 0.232946 -0.026480 0.134492
v 0.232946 -0.026480 -0.134492
v 0.143567 0.137191 0.082889
v 0.143567 0.137191 -0.082889
v -0.143568 0.137191 -0.082889
v -0.143568 0.137191 0.082889
v 0.000000 0.137191 -0.165778
v 0.000000 0.137191 0.165778
v 0.188257 -0.026480 0.108690
v 0.188257 -0.026480 -0.108690
v -0.188258 -0.026480 0.108690
v 0.000000 -0.026480 0.217381
v 0.000000 -0.026480 -0.217381
v -0.188258 -0.026480 -0.108690
v 0.143567 -0.134031 -0.082889
v 0.143567 -0.134031 0.082889
v 0.000000 -0.134031 0.165778
v -0.143568 -0.134031 0.082889
v 0.000000 -0.134031 -0.165778
v -0.143568 -0.134031 -0.082889
v 0.188257 -0.134031 -0.108690
v 0.000000 -0.134031 0.217381
v -0.188258 -0.134031 -0.108690
v 0.188257 -0.134031 0.108690
v -0.188258 -0.134031 0.108690
v 0.000000 -0.134031 -0.217381
v 0.000000 0.201355 -0.000000
v 0.087804 0.159678 0.202697
v 0.087804 0.159678 0.300747
v 0.087804 -0.015212 0.202697
v 0.087804 -0.015212 0.300747
v -0.087804 0.159678 0.202697
v -0.087804 0.159678 0.300747
v -0.087804 -0.015212 0.202697
v -0.087804 -0.015212 0.300747
v 0.087804 0.029931 0.202697
v 0.087804 0.029931 0.300747
v -0.087804 0.029931 0.202697
v -0.087804 0.029931 0.300747
v 0.087804 0.029931 0.350313
v 0.087804 -0.015212 0.350313
v -0.087804 0.029931 0.350313
v 0.087804 -0.099781 0.300747
v 0.087804 -0.034030 0.349070
v 0.087804 -0.051905 0.345404
v 0.087804 -0.067940 0.339499
v 0.087804 -0.081331 0.331651
v 0.087804 -0.091406 0.322252
v 0.087804 -0.097661 0.311776
v -0.087804 -0.099781 0.300747
v -0.087804 -0.015212 0.350313
v -0.087804 -0.097661 0.311776
v -0.087804 -0.091406 0.322252
v -0.087804 -0.081331 0.331651
v -0.087804 -0.067940 0.339499
v -0.087804 -0.051905 0.345404
v -0.087804 -0.034030 0.349070
v 0.202697 0.159678 -0.087804
v 0.300746 0.159678 -0.087804
v 0.202697 -0.015212 -0.087804
v 0.300746 -0.015212 -0.087804
v 0.202697 0.159678 0.087804
v 0.300746 0.159678 0.087804
v 0.202697 -0.015212 0.087804
v 0.300746 -0.015212 0.087804
v 0.202697 0.029931 -0.087804
v 0.300746 0.029931 -0.087804
v 0.202697 0.029931 0.087804
v 0.300746 0.029931 0.087804
v 0.350313 0.029931 -0.087804
v 0.350313 -0.015212 -0.087804
v 0.350313 0.029931 0.087804
v 0.300746 -0.099781 -0.087804
v 0.349070 -0.034031 -0.087804
v 0.345404 -0.051905 -0.087804
v 0.339499 -0.067940 -0.087804
v 0.331650 -0.081331 -0.087804
v 0.322252 -0.091406 -0.087804
v 0.311776 -0.097661 -0.087804
v 0.300746 -0.099781 0.087804
v 0.350313 -0.015212 0.087804
v 0.311776 -0.097661 0.087804
v 0.322252 -0.091406 0.087804
v 0.331650 -0.081331 0.087804
v 0.339499 -0.067940 0.087804
v 0.345404 -0.051905 0.087804
v 0.349070 -0.034031 0.087804
v -0.202697 0.159678 0.087804
v -0.300747 0.159678 0.087804
v -0.202697 -0.015212 0.087804
v -0.300747 -0.015212 0.087804
v -0.202697 0.159678 -0.087804
v -0.300747 0.159678 -0.087804
v -0.202697 -0.015212 -0.087804
v -0.300747 -0.015212 -0.087804
v -0.202697 0.029931 0.087804
v -0.300747 0.029931 0.087804
v -0.202697 0.029931 -0.087804
v -0.300747 0.029931 -0.087804
v -0.350313 0.029931 0.087804
v -0.350313 -0.015212 0.087804
v -0.350313 0.029931 -0.087804
v -0.300747 -0.099781 0.087804
v -0.349070 -0.034031 0.087804
v -0.345405 -0.051905 0.087804
v -0.339499 -0.067940 0.087804
v -0.331651 -0.081331 0.087804
v -0.322253 -0.091406 0.087804
v -0.311776 -0.097661 0.087804
v -0.300747 -0.099781 -0.087804
v -0.350313 -0.015212 -0.087804
v -0.311776 -0.097661 -0.087804
v -0.322253 -0.091406 -0.087804
v -0.331651 -0.081331 -0.087804
v -0.339499 -0.067940 -0.087804
v -0.345405 -0.051905 -0.087804
v -0.349070 -0.034031 -0.087804
v -0.087805 0.159678 -0.202696
v -0.087805 0.159678 -0.300746
v -0.087804 -0.015212 -0.202696
v -0.087805 -0.015212 -0.300746
v 0.087804 0.159678 -0.202697
v 0.087804 0.159678 -0.300747
v 0.087804 -0.015212 -0.202697
v 0.087804 -0.015212 -0.300747
v -0.087805 0.029931 -0.202697
v -0.087805 0.029931 -0.300746
v 0.087804 0.029931 -0.202697
v 0.087804 0.029931 -0.300747
v -0.087805 0.029931 -0.350313
v -0.087805 -0.015212 -0.350313
v 0.087804 0.029931 -0.350313
v -0.087805 -0.099781 -0.300746
v -0.087805 -0.034031 -0.349070
v -0.087805 -0.051905 -0.345404
v -0.087805 -0.067940 -0.339499
v -0.087805 -0.081331 -0.331650
v -0.087805 -0.091406 -0.322253
v -0.087805 -0.097661 -0.311776
v 0.087804 -0.099781 -0.300747
v 0.087804 -0.015212 -0.350313
v 0.087804 -0.097661 -0.311776
v 0.087804 -0.091406 -0.322253
v 0.087804 -0.081331 -0.331651
v 0.087804 -0.067940 -0.339499
v 0.087804 -0.051905 -0.345404
v 0.087804 -0.034031 -0.349070
vn -0.0455 -0.9990 -0.0000
vn 0.0228 -0.9990 -0.0394
vn 0.0228 -0.9990 0.0394
vn -0.0228 -0.9990 0.0394
vn -0.0228 -0.9990 -0.0394
vn 0.0455 -0.9990 -0.0000
vn -0.0000 1.0000 -0.0000
vn 1.0000 -0.0000 -0.0000
vn -0.5000 -0.0000 0.8660
vn -1.0000 -0.0000 -0.0000
vn 0.5000 -0.0000 -0.8660
vn -0.5000 -0.0000 -0.8660
vn 0.5000 -0.0000 0.8660
vn 0.0273 0.9996 -0.0000
vn -0.0136 0.9996 0.0236
vn -0.0136 0.9996 -0.0236
vn 0.0136 0.9996 -0.0236
vn 0.0136 0.9996 0.0236
vn -0.0273 0.9996 -0.0000
vn -0.0000 -1.0000 -0.0000
vn -0.0000 -0.0000 -1.0000
vn -0.0000 -0.0000 1.0000
vn -0.0000 -0.0659 0.9978
vn -0.0000 -0.2009 0.9796
vn -0.0000 -0.3456 0.9384
vn -0.0000 -0.5056 0.8628
vn -0.0000 -0.6821 0.7312
vn -0.0000 -0.8586 0.5127
vn -0.0000 -0.9820 0.1888
vn 0.9978 -0.0659 -0.0000
vn 0.9796 -0.2009 -0.0000
vn 0.9384 -0.3456 -0.0000
vn 0.8627 -0.5057 -0.0000
vn 0.7312 -0.6821 -0.0000
vn 0.5127 -0.8586 -0.0000
vn 0.1887 -0.9820 -0.0000
vn -0.9978 -0.0659 -0.0000
vn -0.9796 -0.2009 -0.0000
vn -0.9384 -0.3456 -0.0000
vn -0.8628 -0.5056 -0.0000
vn -0.7312 -0.6821 -0.0000
vn -0.5126 -0.8586 -0.0000
vn -0.1888 -0.9820 -0.0000
vn -0.0000 -0.0659 -0.9978
vn -0.0000 -0.2009 -0.9796
vn -0.0000 -0.3456 -0.9384
vn -0.0000 -0.5057 -0.8627
vn -0.0000 -0.6821 -0.7313
vn -0.0000 -0.8586 -0.5126
vn -0.0000 -0.9820 -0.1888
vt 0.660143 0.815308
vt 0.657486 0.856458
vt 0.547100 0.783761
vt 0.590466 0.762315
vt 0.599781 0.680327
vt 0.559990 0.655285
vt 0.671262 0.599255
vt 0.669247 0.646659
vt 0.737343 0.693891
vt 0.783240 0.671023
vt 0.774058 0.805541
vt 0.734067 0.777409
vt 0.886740 0.689424
vt 0.879744 0.791910
vt 0.862841 0.789237
vt 0.870058 0.683498
vt 0.445328 0.761102
vt 0.455746 0.657273
vt 0.477492 0.655419
vt 0.466272 0.767239
vt 0.817666 0.916855
vt 0.722587 0.944068
vt 0.701960 0.929811
vt 0.804199 0.882561
vt 0.525740 0.560696
vt 0.615665 0.515415
vt 0.630738 0.530999
vt 0.529285 0.582086
vt 0.739544 0.516358
vt 0.830041 0.574358
vt 0.818357 0.591784
vt 0.724280 0.531489
vt 0.583170 0.941301
vt 0.495213 0.878479
vt 0.508540 0.862629
vt 0.601874 0.926025
vt 0.474687 1.071114
vt 0.407610 1.023205
vt 0.444394 0.971703
vt 0.511471 1.019613
vt 0.840803 0.382009
vt 0.909817 0.426240
vt 0.875856 0.479229
vt 0.806842 0.434997
vt 0.866832 1.059965
vt 0.794032 1.094450
vt 0.767554 1.038554
vt 0.840354 1.004069
vt 0.465746 0.414981
vt 0.534323 0.380449
vt 0.560837 0.433103
vt 0.492259 0.467635
vt 0.284524 0.732519
vt 0.292469 0.653338
vt 0.353264 0.659438
vt 0.345319 0.738619
vt 1.058993 0.715772
vt 1.053334 0.798678
vt 0.989680 0.794333
vt 0.995339 0.711427
vt 0.714286 0.766953
vt 0.718320 0.705198
vt 0.614573 0.690345
vt 0.614235 0.751571
vt 0.668735 0.668254
vt 0.660772 0.792310
vt 0.508317 0.526096
vt 0.598242 0.480815
vt 0.932041 0.694143
vt 0.924621 0.802855
vt 0.761861 0.481538
vt 0.852357 0.539537
vt 0.405378 0.757093
vt 0.415796 0.653265
vt 0.853539 0.514049
vt 0.784526 0.469817
vt 0.578260 0.467703
vt 0.509682 0.502235
vt 0.535643 0.985770
vt 0.468566 0.937860
vt 0.471042 0.912322
vt 0.558998 0.975144
vt 0.822955 0.967338
vt 0.750155 1.001824
vt 0.743092 0.989891
vt 0.829640 0.945834
vt 0.385269 0.742628
vt 0.393214 0.663447
vt 0.953510 0.708572
vt 0.947851 0.791477
vt 0.253401 0.788361
vt 0.253401 0.867679
vt 0.184709 0.828020
vt 0.116018 0.788361
vt 0.184709 0.748701
vt 0.184709 0.907338
vt 0.116018 0.867679
vt 0.360715 0.830345
vt 0.282367 0.830656
vt 0.282256 0.802603
vt 0.360604 0.802293
vt 0.267124 0.896318
vt 0.267124 0.953950
vt 0.106548 0.953950
vt 0.106548 0.896318
vt 0.138349 0.830306
vt 0.219231 0.830306
vt 0.219231 0.913542
vt 0.138349 0.913542
vt 0.106548 0.955073
vt 0.106548 0.924510
vt 0.267124 0.924510
vt 0.267124 0.955073
vt 0.267124 0.875683
vt 0.106548 0.875683
vt 0.106548 0.816375
vt 0.267124 0.816375
vt 0.104088 0.746190
vt 0.264664 0.746190
vt 0.264664 0.924846
vt 0.104088 0.924846
vt 0.219231 0.801346
vt 0.260119 0.801346
vt 0.260119 0.830306
vt 0.138349 0.801346
vt 0.361034 0.910973
vt 0.282686 0.911283
vt 0.106548 0.649666
vt 0.267124 0.649666
vt 0.267124 0.670301
vt 0.106548 0.670301
vt 0.242760 0.830813
vt 0.242649 0.802760
vt 0.267124 0.699435
vt 0.106548 0.699435
vt 0.106548 0.557615
vt 0.267124 0.557615
vt 0.267124 0.596272
vt 0.106548 0.596272
vt 0.219231 0.747094
vt 0.228330 0.748454
vt 0.236972 0.752466
vt 0.244725 0.758930
vt 0.251199 0.767520
vt 0.256070 0.777807
vt 0.259094 0.789274
vt 0.243596 0.791062
vt 0.246481 0.779943
vt 0.251160 0.769960
vt 0.257399 0.761614
vt 0.264884 0.755323
vt 0.273239 0.751403
vt 0.282048 0.750051
vt 0.106548 0.641033
vt 0.267124 0.641033
vt 0.106548 0.632583
vt 0.267124 0.632583
vt 0.106548 0.624473
vt 0.267124 0.624473
vt 0.106548 0.616808
vt 0.267124 0.616808
vt 0.106548 0.609616
vt 0.267124 0.609616
vt 0.106548 0.602827
vt 0.267124 0.602827
s 0
usemtl Material.004
f 6/1/1 12/2/1 11/3/1 5/4/1
f 4/5/2 10/6/2 9/7/2 3/8/2
f 2/9/3 8/10/3 7/11/3 1/12/3
f 1/12/4 7/11/4 12/2/4 6/1/4
f 5/4/5 11/3/5 10/6/5 4/5/5
f 3/8/6 9/7/6 8/10/6 2/9/6
f 36/13/7 35/14/7 19/15/7 20/16/7
f 31/17/7 34/18/7 22/19/7 23/20/7
f 35/21/7 32/22/7 24/23/7 19/24/7
f 34/25/7 33/26/7 21/27/7 22/28/7
f 33/29/7 36/30/7 20/31/7 21/32/7
f 32/33/7 31/34/7 23/35/7 24/36/7
f 8/10/8 9/7/8 21/32/8 20/31/8
f 26/37/8 25/38/8 14/39/8 13/40/8
f 12/2/9 7/11/9 19/24/9 24/23/9
f 28/41/10 27/42/10 17/43/10 16/44/10
f 9/7/11 10/6/11 22/28/11 21/27/11
f 29/45/11 26/46/11 13/47/11 18/48/11
f 30/49/9 28/50/9 16/51/9 15/52/9
f 10/6/12 11/3/12 23/20/12 22/19/12
f 7/11/13 8/10/13 20/16/13 19/15/13
f 25/53/13 30/54/13 15/55/13 14/56/13
f 11/3/10 12/2/10 24/36/10 23/35/10
f 27/57/12 29/58/12 18/59/12 17/60/12
f 2/9/12 1/12/12 29/61/12 27/62/12
f 5/4/13 4/5/13 30/63/13 25/64/13
f 4/5/9 3/8/9 28/65/9 30/63/9
f 1/12/11 6/1/11 26/66/11 29/61/11
f 3/8/10 2/9/10 27/62/10 28/65/10
f 6/1/8 5/4/8 25/64/8 26/66/8
f 33/26/11 34/25/11 44/67/11 47/68/11
f 35/14/13 36/13/13 45/69/13 48/70/13
f 36/30/8 33/29/8 47/71/8 45/72/8
f 34/18/12 31/17/12 46/73/12 44/74/12
f 16/44/10 17/43/10 42/75/10 40/76/10
f 15/52/9 16/51/9 40/77/9 39/78/9
f 37/79/7 38/80/7 46/81/7 43/82/7
f 40/76/7 42/75/7 45/72/7 47/71/7
f 39/78/7 40/77/7 47/68/7 44/67/7
f 41/83/7 37/84/7 43/85/7 48/86/7
f 38/87/7 39/88/7 44/74/7 46/73/7
f 42/89/7 41/90/7 48/70/7 45/69/7
f 18/48/11 13/47/11 37/84/11 41/83/11
f 13/40/8 14/39/8 38/80/8 37/79/8
f 17/60/12 18/59/12 41/90/12 42/89/12
f 32/22/9 35/21/9 48/86/9 43/85/9
f 14/56/13 15/55/13 39/88/13 38/87/13
f 31/34/10 32/33/10 43/82/10 46/81/10
f 5/91/14 6/92/14 49/93/14
f 3/94/15 4/95/15 49/93/15
f 1/96/16 2/97/16 49/93/16
f 6/92/17 1/96/17 49/93/17
f 4/95/18 5/91/18 49/93/18
f 2/97/19 3/94/19 49/93/19
f 58/98/8 59/99/8 53/100/8 52/101/8
f 52/102/20 53/103/20 57/104/20 56/105/20
f 60/106/10 61/107/10 55/108/10 54/109/10
f 54/110/7 55/111/7 51/112/7 50/113/7
f 58/114/21 60/115/21 54/116/21 50/117/21
f 61/118/22 59/119/22 51/120/22 55/121/22
f 61/107/10 57/122/10 73/123/10 64/124/10
f 52/102/21 56/105/21 60/115/21 58/114/21
f 56/125/10 57/122/10 61/107/10 60/106/10
f 50/126/8 51/127/8 59/99/8 58/98/8
f 73/128/22 63/129/22 62/130/22 64/131/22
f 53/100/8 59/99/8 62/132/8 63/133/8
f 59/134/7 61/135/7 64/131/7 62/130/7
f 57/136/21 53/137/21 65/138/21 72/139/21
f 73/123/10 57/122/10 72/140/10 74/141/10 75/142/10 76/143/10 77/144/10 78/145/10 79/146/10
f 53/100/8 63/133/8 66/147/8 67/148/8 68/149/8 69/150/8 70/151/8 71/152/8 65/153/8
f 63/129/23 73/128/23 79/154/23 66/155/23
f 66/155/24 79/154/24 78/156/24 67/157/24
f 67/157/25 78/156/25 77/158/25 68/159/25
f 68/159/26 77/158/26 76/160/26 69/161/26
f 69/161/27 76/160/27 75/162/27 70/163/27
f 70/163/28 75/162/28 74/164/28 71/165/28
f 71/165/29 74/164/29 72/139/29 65/138/29
f 88/98/21 89/99/21 83/100/21 82/101/21
f 82/102/20 83/103/20 87/104/20 86/105/20
f 90/106/22 91/107/22 85/108/22 84/109/22
f 84/110/7 85/111/7 81/112/7 80/113/7
f 88/114/10 90/115/10 84/116/10 80/117/10
f 91/118/8 89/119/8 81/120/8 85/121/8
f 91/107/22 87/122/22 103/123/22 94/124/22
f 82/102/10 86/105/10 90/115/10 88/114/10
f 86/125/22 87/122/22 91/107/22 90/106/22
f 80/126/21 81/127/21 89/99/21 88/98/21
f 103/128/8 93/129/8 92/130/8 94/131/8
f 83/100/21 89/99/21 92/132/21 93/133/21
f 89/134/7 91/135/7 94/131/7 92/130/7
f 87/136/10 83/137/10 95/138/10 102/139/10
f 103/123/22 87/122/22 102/140/22 104/141/22 105/142/22 106/143/22 107/144/22 108/145/22 109/146/22
f 83/100/21 93/133/21 96/147/21 97/148/21 98/149/21 99/150/21 100/151/21 101/152/21 95/153/21
f 93/129/30 103/128/30 109/154/30 96/155/30
f 96/155/31 109/154/31 108/156/31 97/157/31
f 97/157/32 108/156/32 107/158/32 98/159/32
f 98/159/33 107/158/33 106/160/33 99/161/33
f 99/161/34 106/160/34 105/162/34 100/163/34
f 100/163/35 105/162/35 104/164/35 101/165/35
f 101/165/36 104/164/36 102/139/36 95/138/36
f 118/98/22 119/99/22 113/100/22 112/101/22
f 112/102/20 113/103/20 117/104/20 116/105/20
f 120/106/21 121/107/21 115/108/21 114/109/21
f 114/110/7 115/111/7 111/112/7 110/113/7
f 118/114/8 120/115/8 114/116/8 110/117/8
f 121/118/10 119/119/10 111/120/10 115/121/10
f 121/107/21 117/122/21 133/123/21 124/124/21
f 112/102/8 116/105/8 120/115/8 118/114/8
f 116/125/21 117/122/21 121/107/21 120/106/21
f 110/126/22 111/127/22 119/99/22 118/98/22
f 133/128/10 123/129/10 122/130/10 124/131/10
f 113/100/22 119/99/22 122/132/22 123/133/22
f 119/134/7 121/135/7 124/131/7 122/130/7
f 117/136/8 113/137/8 125/138/8 132/139/8
f 133/123/21 117/122/21 132/140/21 134/141/21 135/142/21 136/143/21 137/144/21 138/145/21 139/146/21
f 113/100/22 123/133/22 126/147/22 127/148/22 128/149/22 129/150/22 130/151/22 131/152/22 125/153/22
f 123/129/37 133/128/37 139/154/37 126/155/37
f 126/155/38 139/154/38 138/156/38 127/157/38
f 127/157/39 138/156/39 137/158/39 128/159/39
f 128/159/40 137/158/40 136/160/40 129/161/40
f 129/161/41 136/160/41 135/162/41 130/163/41
f 130/163/42 135/162/42 134/164/42 131/165/42
f 131/165/43 134/164/43 132/139/43 125/138/43
f 148/98/10 149/99/10 143/100/10 142/101/10
f 142/102/20 143/103/20 147/104/20 146/105/20
f 150/106/8 151/107/8 145/108/8 144/109/8
f 144/110/7 145/111/7 141/112/7 140/113/7
f 148/114/22 150/115/22 144/116/22 140/117/22
f 151/118/21 149/119/21 141/120/21 145/121/21
f 151/107/8 147/122/8 163/123/8 154/124/8
f 142/102/22 146/105/22 150/115/22 148/114/22
f 146/125/8 147/122/8 151/107/8 150/106/8
f 140/126/10 141/127/10 149/99/10 148/98/10
f 163/128/21 153/129/21 152/130/21 154/131/21
f 143/100/10 149/99/10 152/132/10 153/133/10
f 149/134/7 151/135/7 154/131/7 152/130/7
f 147/136/22 143/137/22 155/138/22 162/139/22
f 163/123/8 147/122/8 162/140/8 164/141/8 165/142/8 166/143/8 167/144/8 168/145/8 169/146/8
f 143/100/10 153/133/10 156/147/10 157/148/10 158/149/10 159/150/10 160/151/10 161/152/10 155/153/10
f 153/129/44 163/128/44 169/154/44 156/155/44
f 156/155/45 169/154/45 168/156/45 157/157/45
f 157/157/46 168/156/46 167/158/46 158/159/46
f 158/159/47 167/158/47 166/160/47 159/161/47
f 159/161/48 166/160/48 165/162/48 160/163/48
f 160/163/49 165/162/49 164/164/49 161/165/49
f 161/165/50 164/164/50 162/139/50 155/138/50
