# Blender v2.90.1 OBJ File: ''
# www.blender.org
mtllib pointer.mtl
o Cube_Cube.003
v -0.188451 0.188451 0.002630
v 0.000000 0.000001 -1.068339
v -0.188451 -0.188451 0.002630
v 0.188451 -0.188451 0.002630
v 0.188451 0.188451 0.002630
vt 0.375000 0.000000
vt 0.625000 0.250000
vt 0.375000 0.250000
vt 0.625000 0.500000
vt 0.375000 0.500000
vt 0.625000 0.750000
vt 0.375000 0.750000
vt 0.625000 1.000000
vt 0.375000 1.000000
vt 0.125000 0.500000
vt 0.125000 0.750000
vn -0.9849 0.0000 -0.1733
vn 0.0000 -0.9849 -0.1733
vn 0.9849 0.0000 -0.1733
vn 0.0000 0.9849 -0.1733
vn 0.0000 -0.0000 1.0000
usemtl None.002
s 1
f 1/1/1 2/2/1 3/3/1
f 3/3/2 2/4/2 4/5/2
f 4/5/3 2/6/3 5/7/3
f 5/7/4 2/8/4 1/9/4
f 3/10/5 4/5/5 5/7/5 1/11/5
