# Blender v2.90.1 OBJ File: ''
# www.blender.org
mtllib Needle.mtl
o Circle
v 0.642685 1.610220 1.062690
v 0.227360 1.610220 1.452337
v 0.444142 1.610220 1.386576
v 0.643931 1.610220 1.279787
v 0.819046 1.610220 1.136073
v 0.962760 1.610220 0.960957
v 0.262187 1.610220 1.123749
v 0.170867 1.610220 1.123749
v 0.216795 1.610220 0.318251
v 0.186176 1.610220 -0.989404
v 0.264181 1.610220 -1.077432
v 0.001912 1.610220 -1.595391
v -0.638862 1.610220 1.062690
v 0.001912 1.610220 1.474542
v -0.223536 1.610220 1.452337
v -0.440319 1.610220 1.386576
v -0.640107 1.610220 1.279787
v -0.815223 1.610220 1.136073
v -0.958937 1.610220 0.960957
v -0.258363 1.610220 1.123749
v -0.167044 1.610220 1.123749
v -0.212971 1.610220 0.318251
v -0.182353 1.610220 -0.989404
v -0.260357 1.610220 -1.077432
v 0.001912 1.610220 -1.595391
v 0.642685 1.657985 1.062690
v 0.227360 1.657985 1.452337
v 0.444142 1.657985 1.386576
v 0.643931 1.657985 1.279787
v 0.819046 1.657985 1.136073
v 0.962760 1.657985 0.960957
v 0.262187 1.657985 1.123749
v 0.170867 1.657985 1.123749
v 0.216795 1.657985 0.318251
v 0.186176 1.657985 -0.989404
v 0.264181 1.657985 -1.077432
v 0.001912 1.657985 -1.595391
v -0.638862 1.657985 1.062690
v 0.001912 1.657985 1.474542
v -0.223536 1.657985 1.452337
v -0.440319 1.657985 1.386576
v -0.640107 1.657985 1.279787
v -0.815223 1.657985 1.136073
v -0.958937 1.657985 0.960957
v -0.258363 1.657985 1.123749
v -0.167044 1.657985 1.123749
v -0.212971 1.657985 0.318251
v -0.182353 1.657985 -0.989404
v -0.260357 1.657985 -1.077432
v 0.001912 1.657985 -1.595391
vt 0.772803 0.326581
vt 0.742225 0.345025
vt 0.743618 0.311853
vt 0.769635 0.317327
vt 0.704461 0.362172
vt 0.690732 0.369555
vt 0.714697 0.308568
vt 0.660687 0.308810
vt 0.688025 0.309393
vt 0.630427 0.308316
vt 0.600218 0.309337
vt 0.632857 0.367839
vt 0.575297 0.310622
vt 0.574843 0.343179
vt 0.614668 0.361072
vt 0.547188 0.323351
vt 0.558815 0.314867
vt 0.692058 0.465847
vt 0.633033 0.461584
vt 0.680305 0.671200
vt 0.644126 0.667782
vt 0.687653 0.679492
vt 0.662948 0.745616
vt 0.636779 0.676074
vt 0.772803 0.326581
vt 0.769635 0.317327
vt 0.743618 0.311853
vt 0.742225 0.345025
vt 0.714697 0.308568
vt 0.690732 0.369555
vt 0.704461 0.362172
vt 0.660687 0.308810
vt 0.688025 0.309393
vt 0.632857 0.367839
vt 0.600218 0.309337
vt 0.630427 0.308316
vt 0.575297 0.310622
vt 0.614668 0.361072
vt 0.574843 0.343179
vt 0.547188 0.323351
vt 0.558815 0.314867
vt 0.692058 0.465847
vt 0.633033 0.461584
vt 0.644126 0.667782
vt 0.680305 0.671200
vt 0.636779 0.676074
vt 0.662948 0.745616
vt 0.687653 0.679492
vt 0.732996 0.300963
vt 0.710710 0.300963
vt 0.710710 0.306291
vt 0.732996 0.306291
vt 0.617925 0.368035
vt 0.585446 0.351915
vt 0.583422 0.355992
vt 0.615901 0.372112
vt 0.659182 0.751884
vt 0.690052 0.681667
vt 0.697406 0.681876
vt 0.666537 0.752092
vt 0.752531 0.300963
vt 0.752531 0.306291
vt 0.625720 0.371903
vt 0.623697 0.375981
vt 0.558124 0.338355
vt 0.556101 0.342432
vt 0.761278 0.304250
vt 0.779359 0.311644
vt 0.777342 0.316576
vt 0.759261 0.309182
vt 0.695977 0.339666
vt 0.692458 0.463692
vt 0.699813 0.463901
vt 0.703332 0.339875
vt 0.636231 0.300963
vt 0.661380 0.300963
vt 0.661380 0.306291
vt 0.636231 0.306291
vt 0.709321 0.366948
vt 0.738568 0.352042
vt 0.740439 0.355713
vt 0.711192 0.370620
vt 0.686745 0.665037
vt 0.694100 0.665246
vt 0.612049 0.300963
vt 0.612049 0.306291
vt 0.702301 0.370526
vt 0.704173 0.374198
vt 0.690052 0.681667
vt 0.697406 0.681876
vt 0.763170 0.339502
vt 0.765041 0.343174
vt 0.589763 0.300963
vt 0.589763 0.306291
vt 0.692458 0.463692
vt 0.695977 0.339666
vt 0.703332 0.339875
vt 0.699813 0.463901
vt 0.659182 0.751884
vt 0.666537 0.752092
vt 0.686528 0.300963
vt 0.686528 0.306291
vt 0.570229 0.300963
vt 0.570229 0.306291
vt 0.686745 0.665037
vt 0.694100 0.665246
vt 0.547648 0.310694
vt 0.565645 0.303097
vt 0.567717 0.308005
vt 0.549721 0.315603
vn 0.0000 1.0000 0.0000
vn 0.0000 -1.0000 0.0000
vn -0.4714 0.0000 -0.8819
vn 0.1584 0.0000 -0.9874
vn -0.8921 0.0000 0.4517
vn -0.6344 0.0000 -0.7730
vn 0.0000 0.0000 -1.0000
vn 0.3029 0.0000 -0.9530
vn -0.7730 0.0000 -0.6344
vn 0.9984 0.0000 -0.0569
vn -0.0980 0.0000 0.9952
vn 0.1584 0.0000 0.9874
vn 0.9997 0.0000 0.0234
vn -0.2903 0.0000 0.9569
vn 0.0000 0.0000 1.0000
vn 0.7484 0.0000 -0.6632
vn 0.3029 0.0000 0.9530
vn -0.4714 0.0000 0.8819
vn -0.9984 0.0000 -0.0569
vn 0.8921 0.0000 0.4517
vn -0.0980 0.0000 -0.9952
vn -0.6344 0.0000 0.7730
vn -0.9997 0.0000 0.0234
vn -0.2903 0.0000 -0.9569
vn -0.7730 0.0000 0.6344
vn -0.7484 0.0000 -0.6632
usemtl Default_OBJ
s off
f 6/1/1 1/2/1 4/3/1 5/4/1
f 4/3/1 1/2/1 7/5/1 8/6/1 3/7/1
f 14/8/1 2/9/1 3/7/1 8/6/1
f 14/8/2 15/10/2 16/11/2 21/12/2
f 17/13/2 13/14/2 20/15/2 21/12/2 16/11/2
f 19/16/2 13/14/2 17/13/2 18/17/2
f 9/18/1 22/19/1 21/12/1 14/8/1 8/6/1
f 9/18/1 10/20/1 23/21/1 22/19/1
f 23/21/1 10/20/1 11/22/1 25/23/1 24/24/1
f 31/25/2 30/26/2 29/27/2 26/28/2
f 29/27/2 28/29/2 33/30/2 32/31/2 26/28/2
f 39/32/2 33/30/2 28/29/2 27/33/2
f 39/32/1 46/34/1 41/35/1 40/36/1
f 42/37/1 41/35/1 46/34/1 45/38/1 38/39/1
f 44/40/1 43/41/1 42/37/1 38/39/1
f 34/42/2 33/30/2 39/32/2 46/34/2 47/43/2
f 34/42/2 47/43/2 48/44/2 35/45/2
f 48/44/2 49/46/2 50/47/2 36/48/2 35/45/2
f 4/49/3 3/50/3 28/51/3 29/52/3
f 20/53/4 13/54/4 38/55/4 45/56/4
f 12/57/5 11/58/5 36/59/5 37/60/5
f 5/61/6 4/49/6 29/52/6 30/62/6
f 21/63/7 20/53/7 45/56/7 46/64/7
f 13/54/8 19/65/8 44/66/8 38/55/8
f 6/67/9 5/68/9 30/69/9 31/70/9
f 21/71/10 22/72/10 47/73/10 46/74/10
f 15/75/11 14/76/11 39/77/11 40/78/11
f 7/79/12 1/80/12 26/81/12 32/82/12
f 22/72/13 23/83/13 48/84/13 47/73/13
f 16/85/14 15/75/14 40/78/14 41/86/14
f 8/87/15 7/79/15 32/82/15 33/88/15
f 23/83/16 24/89/16 49/90/16 48/84/16
f 1/80/17 6/91/17 31/92/17 26/81/17
f 17/93/18 16/85/18 41/86/18 42/94/18
f 9/95/19 8/96/19 33/97/19 34/98/19
f 24/89/20 25/99/20 50/100/20 49/90/20
f 2/101/21 14/76/21 39/77/21 27/102/21
f 18/103/22 17/93/22 42/94/22 43/104/22
f 10/105/23 9/95/23 34/98/23 35/106/23
f 3/50/24 2/101/24 27/102/24 28/51/24
f 19/107/25 18/108/25 43/109/25 44/110/25
f 25/99/5 11/58/5 36/59/5 50/100/5
f 11/58/26 10/105/26 35/106/26 36/59/26
